%
M48
M72
T01C0.0360
T02C0.0400
T03C0.0433
T04C0.0500
T05C0.0520
T06C0.0700
T07C0.1260
%
T01
X32600Y13100
X33600Y13100
X33100Y3100
X34100Y3100
T02
X15050Y3100
X9150Y3100
X9150Y13100
X15050Y13100
T03
X17600Y13104
X19596Y13100
X26604Y13100
X28100Y13104
X30600Y10104
X28100Y6096
X29104Y3100
X30600Y3096
X22096Y3100
X20100Y3096
X17600Y6096
X20100Y10104
T04
X35100Y8600
T05
X3110Y3100
X5090Y3100
X5090Y13100
X3110Y13100
T06
X34096Y9604
X36104Y9604
X36104Y7596
X34096Y7596
T07
X36100Y1600
X17600Y1600
X36100Y14600
X17600Y15100
M30
