G75*
G70*
%OFA0B0*%
%FSLAX24Y24*%
%IPPOS*%
%LPD*%
%AMOC8*
5,1,8,0,0,1.08239X$1,22.5*
%
%ADD10C,0.0000*%
%ADD11C,0.0060*%
%ADD12C,0.0160*%
%ADD13C,0.0070*%
%ADD14R,0.0320X0.0843*%
%ADD15R,0.0320X0.0833*%
%ADD16R,0.0843X0.0320*%
%ADD17R,0.0833X0.0320*%
%ADD18C,0.0080*%
%ADD19C,0.0040*%
%ADD20C,0.0050*%
%ADD21R,0.0300X0.1500*%
D10*
X000100Y000100D02*
X000100Y016470D01*
X038092Y016470D01*
X038092Y000100D01*
X000100Y000100D01*
X016970Y001600D02*
X016972Y001650D01*
X016978Y001700D01*
X016988Y001749D01*
X017002Y001797D01*
X017019Y001844D01*
X017040Y001889D01*
X017065Y001933D01*
X017093Y001974D01*
X017125Y002013D01*
X017159Y002050D01*
X017196Y002084D01*
X017236Y002114D01*
X017278Y002141D01*
X017322Y002165D01*
X017368Y002186D01*
X017415Y002202D01*
X017463Y002215D01*
X017513Y002224D01*
X017562Y002229D01*
X017613Y002230D01*
X017663Y002227D01*
X017712Y002220D01*
X017761Y002209D01*
X017809Y002194D01*
X017855Y002176D01*
X017900Y002154D01*
X017943Y002128D01*
X017984Y002099D01*
X018023Y002067D01*
X018059Y002032D01*
X018091Y001994D01*
X018121Y001954D01*
X018148Y001911D01*
X018171Y001867D01*
X018190Y001821D01*
X018206Y001773D01*
X018218Y001724D01*
X018226Y001675D01*
X018230Y001625D01*
X018230Y001575D01*
X018226Y001525D01*
X018218Y001476D01*
X018206Y001427D01*
X018190Y001379D01*
X018171Y001333D01*
X018148Y001289D01*
X018121Y001246D01*
X018091Y001206D01*
X018059Y001168D01*
X018023Y001133D01*
X017984Y001101D01*
X017943Y001072D01*
X017900Y001046D01*
X017855Y001024D01*
X017809Y001006D01*
X017761Y000991D01*
X017712Y000980D01*
X017663Y000973D01*
X017613Y000970D01*
X017562Y000971D01*
X017513Y000976D01*
X017463Y000985D01*
X017415Y000998D01*
X017368Y001014D01*
X017322Y001035D01*
X017278Y001059D01*
X017236Y001086D01*
X017196Y001116D01*
X017159Y001150D01*
X017125Y001187D01*
X017093Y001226D01*
X017065Y001267D01*
X017040Y001311D01*
X017019Y001356D01*
X017002Y001403D01*
X016988Y001451D01*
X016978Y001500D01*
X016972Y001550D01*
X016970Y001600D01*
X035470Y001600D02*
X035472Y001650D01*
X035478Y001700D01*
X035488Y001749D01*
X035502Y001797D01*
X035519Y001844D01*
X035540Y001889D01*
X035565Y001933D01*
X035593Y001974D01*
X035625Y002013D01*
X035659Y002050D01*
X035696Y002084D01*
X035736Y002114D01*
X035778Y002141D01*
X035822Y002165D01*
X035868Y002186D01*
X035915Y002202D01*
X035963Y002215D01*
X036013Y002224D01*
X036062Y002229D01*
X036113Y002230D01*
X036163Y002227D01*
X036212Y002220D01*
X036261Y002209D01*
X036309Y002194D01*
X036355Y002176D01*
X036400Y002154D01*
X036443Y002128D01*
X036484Y002099D01*
X036523Y002067D01*
X036559Y002032D01*
X036591Y001994D01*
X036621Y001954D01*
X036648Y001911D01*
X036671Y001867D01*
X036690Y001821D01*
X036706Y001773D01*
X036718Y001724D01*
X036726Y001675D01*
X036730Y001625D01*
X036730Y001575D01*
X036726Y001525D01*
X036718Y001476D01*
X036706Y001427D01*
X036690Y001379D01*
X036671Y001333D01*
X036648Y001289D01*
X036621Y001246D01*
X036591Y001206D01*
X036559Y001168D01*
X036523Y001133D01*
X036484Y001101D01*
X036443Y001072D01*
X036400Y001046D01*
X036355Y001024D01*
X036309Y001006D01*
X036261Y000991D01*
X036212Y000980D01*
X036163Y000973D01*
X036113Y000970D01*
X036062Y000971D01*
X036013Y000976D01*
X035963Y000985D01*
X035915Y000998D01*
X035868Y001014D01*
X035822Y001035D01*
X035778Y001059D01*
X035736Y001086D01*
X035696Y001116D01*
X035659Y001150D01*
X035625Y001187D01*
X035593Y001226D01*
X035565Y001267D01*
X035540Y001311D01*
X035519Y001356D01*
X035502Y001403D01*
X035488Y001451D01*
X035478Y001500D01*
X035472Y001550D01*
X035470Y001600D01*
X035470Y014600D02*
X035472Y014650D01*
X035478Y014700D01*
X035488Y014749D01*
X035502Y014797D01*
X035519Y014844D01*
X035540Y014889D01*
X035565Y014933D01*
X035593Y014974D01*
X035625Y015013D01*
X035659Y015050D01*
X035696Y015084D01*
X035736Y015114D01*
X035778Y015141D01*
X035822Y015165D01*
X035868Y015186D01*
X035915Y015202D01*
X035963Y015215D01*
X036013Y015224D01*
X036062Y015229D01*
X036113Y015230D01*
X036163Y015227D01*
X036212Y015220D01*
X036261Y015209D01*
X036309Y015194D01*
X036355Y015176D01*
X036400Y015154D01*
X036443Y015128D01*
X036484Y015099D01*
X036523Y015067D01*
X036559Y015032D01*
X036591Y014994D01*
X036621Y014954D01*
X036648Y014911D01*
X036671Y014867D01*
X036690Y014821D01*
X036706Y014773D01*
X036718Y014724D01*
X036726Y014675D01*
X036730Y014625D01*
X036730Y014575D01*
X036726Y014525D01*
X036718Y014476D01*
X036706Y014427D01*
X036690Y014379D01*
X036671Y014333D01*
X036648Y014289D01*
X036621Y014246D01*
X036591Y014206D01*
X036559Y014168D01*
X036523Y014133D01*
X036484Y014101D01*
X036443Y014072D01*
X036400Y014046D01*
X036355Y014024D01*
X036309Y014006D01*
X036261Y013991D01*
X036212Y013980D01*
X036163Y013973D01*
X036113Y013970D01*
X036062Y013971D01*
X036013Y013976D01*
X035963Y013985D01*
X035915Y013998D01*
X035868Y014014D01*
X035822Y014035D01*
X035778Y014059D01*
X035736Y014086D01*
X035696Y014116D01*
X035659Y014150D01*
X035625Y014187D01*
X035593Y014226D01*
X035565Y014267D01*
X035540Y014311D01*
X035519Y014356D01*
X035502Y014403D01*
X035488Y014451D01*
X035478Y014500D01*
X035472Y014550D01*
X035470Y014600D01*
X016970Y015100D02*
X016972Y015150D01*
X016978Y015200D01*
X016988Y015249D01*
X017002Y015297D01*
X017019Y015344D01*
X017040Y015389D01*
X017065Y015433D01*
X017093Y015474D01*
X017125Y015513D01*
X017159Y015550D01*
X017196Y015584D01*
X017236Y015614D01*
X017278Y015641D01*
X017322Y015665D01*
X017368Y015686D01*
X017415Y015702D01*
X017463Y015715D01*
X017513Y015724D01*
X017562Y015729D01*
X017613Y015730D01*
X017663Y015727D01*
X017712Y015720D01*
X017761Y015709D01*
X017809Y015694D01*
X017855Y015676D01*
X017900Y015654D01*
X017943Y015628D01*
X017984Y015599D01*
X018023Y015567D01*
X018059Y015532D01*
X018091Y015494D01*
X018121Y015454D01*
X018148Y015411D01*
X018171Y015367D01*
X018190Y015321D01*
X018206Y015273D01*
X018218Y015224D01*
X018226Y015175D01*
X018230Y015125D01*
X018230Y015075D01*
X018226Y015025D01*
X018218Y014976D01*
X018206Y014927D01*
X018190Y014879D01*
X018171Y014833D01*
X018148Y014789D01*
X018121Y014746D01*
X018091Y014706D01*
X018059Y014668D01*
X018023Y014633D01*
X017984Y014601D01*
X017943Y014572D01*
X017900Y014546D01*
X017855Y014524D01*
X017809Y014506D01*
X017761Y014491D01*
X017712Y014480D01*
X017663Y014473D01*
X017613Y014470D01*
X017562Y014471D01*
X017513Y014476D01*
X017463Y014485D01*
X017415Y014498D01*
X017368Y014514D01*
X017322Y014535D01*
X017278Y014559D01*
X017236Y014586D01*
X017196Y014616D01*
X017159Y014650D01*
X017125Y014687D01*
X017093Y014726D01*
X017065Y014767D01*
X017040Y014811D01*
X017019Y014856D01*
X017002Y014903D01*
X016988Y014951D01*
X016978Y015000D01*
X016972Y015050D01*
X016970Y015100D01*
D11*
X015450Y014100D02*
X008750Y014100D01*
X008724Y014098D01*
X008698Y014093D01*
X008673Y014085D01*
X008650Y014073D01*
X008628Y014059D01*
X008609Y014041D01*
X008591Y014022D01*
X008577Y014000D01*
X008565Y013977D01*
X008557Y013952D01*
X008552Y013926D01*
X008550Y013900D01*
X008550Y012300D01*
X008552Y012274D01*
X008557Y012248D01*
X008565Y012223D01*
X008577Y012200D01*
X008591Y012178D01*
X008609Y012159D01*
X008628Y012141D01*
X008650Y012127D01*
X008673Y012115D01*
X008698Y012107D01*
X008724Y012102D01*
X008750Y012100D01*
X015450Y012100D01*
X015476Y012102D01*
X015502Y012107D01*
X015527Y012115D01*
X015550Y012127D01*
X015572Y012141D01*
X015591Y012159D01*
X015609Y012178D01*
X015623Y012200D01*
X015635Y012223D01*
X015643Y012248D01*
X015648Y012274D01*
X015650Y012300D01*
X015650Y013900D01*
X015648Y013926D01*
X015643Y013952D01*
X015635Y013977D01*
X015623Y014000D01*
X015609Y014022D01*
X015591Y014041D01*
X015572Y014059D01*
X015550Y014073D01*
X015527Y014085D01*
X015502Y014093D01*
X015476Y014098D01*
X015450Y014100D01*
X014500Y013100D02*
X010450Y013100D01*
X010100Y013100D02*
X009700Y013100D01*
X009686Y014230D02*
X010013Y014230D01*
X009850Y014230D02*
X009850Y014720D01*
X009686Y014557D01*
X009507Y014639D02*
X009425Y014720D01*
X009262Y014720D01*
X009180Y014639D01*
X009180Y014312D01*
X009262Y014230D01*
X009425Y014230D01*
X009507Y014312D01*
X009460Y015130D02*
X009353Y015237D01*
X009353Y015450D01*
X009460Y015557D01*
X009673Y015557D01*
X009780Y015450D01*
X009780Y015344D01*
X009353Y015344D01*
X009460Y015130D02*
X009673Y015130D01*
X009997Y015130D02*
X010211Y015130D01*
X010104Y015130D02*
X010104Y015771D01*
X009997Y015771D01*
X010427Y015771D02*
X010427Y015130D01*
X010854Y015130D02*
X010854Y015450D01*
X010747Y015557D01*
X010534Y015557D01*
X010427Y015450D01*
X011072Y015557D02*
X011178Y015557D01*
X011178Y015130D01*
X011072Y015130D02*
X011285Y015130D01*
X011178Y015771D02*
X011178Y015877D01*
X009135Y015664D02*
X009135Y015237D01*
X009028Y015130D01*
X008708Y015130D01*
X008708Y015771D01*
X009028Y015771D01*
X009135Y015664D01*
X008491Y015450D02*
X008064Y015450D01*
X007846Y015771D02*
X007419Y015771D01*
X007633Y015771D02*
X007633Y015130D01*
X007203Y015130D02*
X006989Y015130D01*
X007096Y015130D02*
X007096Y015771D01*
X006989Y015771D02*
X007203Y015771D01*
X006773Y015771D02*
X006560Y015771D01*
X006666Y015771D02*
X006666Y015130D01*
X006560Y015130D02*
X006773Y015130D01*
X006344Y015130D02*
X006130Y015130D01*
X006237Y015130D02*
X006237Y015771D01*
X006130Y015771D02*
X006344Y015771D01*
X006100Y014650D02*
X006100Y013950D01*
X006100Y012250D01*
X006100Y011700D01*
X002100Y011700D01*
X002100Y012250D01*
X002100Y013950D01*
X006100Y013950D01*
X004890Y014300D02*
X004892Y014328D01*
X004898Y014355D01*
X004907Y014381D01*
X004920Y014406D01*
X004937Y014429D01*
X004956Y014449D01*
X004978Y014466D01*
X005002Y014480D01*
X005028Y014490D01*
X005055Y014497D01*
X005083Y014500D01*
X005111Y014499D01*
X005138Y014494D01*
X005165Y014485D01*
X005190Y014473D01*
X005213Y014458D01*
X005234Y014439D01*
X005252Y014418D01*
X005267Y014394D01*
X005278Y014368D01*
X005286Y014342D01*
X005290Y014314D01*
X005290Y014286D01*
X005286Y014258D01*
X005278Y014232D01*
X005267Y014206D01*
X005252Y014182D01*
X005234Y014161D01*
X005213Y014142D01*
X005190Y014127D01*
X005165Y014115D01*
X005138Y014106D01*
X005111Y014101D01*
X005083Y014100D01*
X005055Y014103D01*
X005028Y014110D01*
X005002Y014120D01*
X004978Y014134D01*
X004956Y014151D01*
X004937Y014171D01*
X004920Y014194D01*
X004907Y014219D01*
X004898Y014245D01*
X004892Y014272D01*
X004890Y014300D01*
X006100Y014650D02*
X002100Y014650D01*
X002100Y014300D01*
X002100Y013950D01*
X001900Y013900D01*
X001900Y014350D01*
X002100Y014300D01*
X002910Y014300D02*
X002912Y014328D01*
X002918Y014355D01*
X002927Y014381D01*
X002940Y014406D01*
X002957Y014429D01*
X002976Y014449D01*
X002998Y014466D01*
X003022Y014480D01*
X003048Y014490D01*
X003075Y014497D01*
X003103Y014500D01*
X003131Y014499D01*
X003158Y014494D01*
X003185Y014485D01*
X003210Y014473D01*
X003233Y014458D01*
X003254Y014439D01*
X003272Y014418D01*
X003287Y014394D01*
X003298Y014368D01*
X003306Y014342D01*
X003310Y014314D01*
X003310Y014286D01*
X003306Y014258D01*
X003298Y014232D01*
X003287Y014206D01*
X003272Y014182D01*
X003254Y014161D01*
X003233Y014142D01*
X003210Y014127D01*
X003185Y014115D01*
X003158Y014106D01*
X003131Y014101D01*
X003103Y014100D01*
X003075Y014103D01*
X003048Y014110D01*
X003022Y014120D01*
X002998Y014134D01*
X002976Y014151D01*
X002957Y014171D01*
X002940Y014194D01*
X002927Y014219D01*
X002918Y014245D01*
X002912Y014272D01*
X002910Y014300D01*
X002100Y012250D02*
X006100Y012250D01*
X007075Y011057D02*
X007289Y011271D01*
X007505Y011271D02*
X007825Y011271D01*
X007932Y011164D01*
X007932Y010950D01*
X007825Y010844D01*
X007505Y010844D01*
X007505Y010630D02*
X007505Y011271D01*
X007075Y011057D02*
X007075Y010844D01*
X007289Y010630D01*
X008150Y010630D02*
X008150Y011271D01*
X008257Y011057D02*
X008470Y011057D01*
X008577Y010950D01*
X008577Y010630D01*
X008794Y010737D02*
X008901Y010844D01*
X009221Y010844D01*
X009221Y010950D02*
X009115Y011057D01*
X008901Y011057D01*
X009221Y010950D02*
X009221Y010630D01*
X008901Y010630D01*
X008794Y010737D01*
X009439Y010630D02*
X009759Y010630D01*
X009866Y010737D01*
X009759Y010844D01*
X009546Y010844D01*
X009439Y010950D01*
X009546Y011057D01*
X009866Y011057D01*
X010083Y010950D02*
X010190Y011057D01*
X010404Y011057D01*
X010510Y010950D01*
X010510Y010844D01*
X010083Y010844D01*
X010083Y010950D02*
X010083Y010737D01*
X010190Y010630D01*
X010404Y010630D01*
X010728Y010630D02*
X010941Y010844D01*
X010941Y011057D01*
X010728Y011271D01*
X008257Y011057D02*
X008150Y010950D01*
X006215Y011057D02*
X006001Y011057D01*
X006108Y011164D02*
X006108Y010737D01*
X006215Y010630D01*
X005784Y010630D02*
X005784Y011057D01*
X005357Y011057D02*
X005357Y010737D01*
X005463Y010630D01*
X005784Y010630D01*
X005139Y010737D02*
X005139Y010950D01*
X005032Y011057D01*
X004712Y011057D01*
X004712Y010416D01*
X004712Y010630D02*
X005032Y010630D01*
X005139Y010737D01*
X004495Y010630D02*
X004495Y010950D01*
X004388Y011057D01*
X004068Y011057D01*
X004068Y010630D01*
X003851Y010630D02*
X003638Y010630D01*
X003745Y010630D02*
X003745Y011271D01*
X003851Y011271D02*
X003638Y011271D01*
X002776Y011271D02*
X002349Y011271D01*
X002349Y010630D01*
X002776Y010630D01*
X002562Y010950D02*
X002349Y010950D01*
X002131Y010630D02*
X001704Y011271D01*
X001704Y010630D01*
X001488Y010630D02*
X001275Y010630D01*
X001381Y010630D02*
X001381Y011271D01*
X001275Y011271D02*
X001488Y011271D01*
X002131Y011271D02*
X002131Y010630D01*
X001057Y010630D02*
X000630Y010630D01*
X000630Y011271D01*
X002100Y004650D02*
X002100Y004300D01*
X002100Y003950D01*
X002100Y002250D01*
X006100Y002250D01*
X006100Y001700D01*
X002100Y001700D01*
X002100Y002250D01*
X002131Y001271D02*
X002131Y000630D01*
X001704Y001271D01*
X001704Y000630D01*
X001488Y000630D02*
X001275Y000630D01*
X001381Y000630D02*
X001381Y001271D01*
X001275Y001271D02*
X001488Y001271D01*
X000630Y001271D02*
X000630Y000630D01*
X001057Y000630D01*
X002349Y000630D02*
X002349Y001271D01*
X002776Y001271D01*
X002562Y000950D02*
X002349Y000950D01*
X002349Y000630D02*
X002776Y000630D01*
X003638Y000630D02*
X003851Y000630D01*
X003745Y000630D02*
X003745Y001271D01*
X003851Y001271D02*
X003638Y001271D01*
X004068Y001057D02*
X004388Y001057D01*
X004495Y000950D01*
X004495Y000630D01*
X004712Y000630D02*
X005032Y000630D01*
X005139Y000737D01*
X005139Y000950D01*
X005032Y001057D01*
X004712Y001057D01*
X004712Y000416D01*
X004068Y000630D02*
X004068Y001057D01*
X005357Y001057D02*
X005357Y000737D01*
X005463Y000630D01*
X005784Y000630D01*
X005784Y001057D01*
X006001Y001057D02*
X006215Y001057D01*
X006108Y001164D02*
X006108Y000737D01*
X006215Y000630D01*
X007075Y000844D02*
X007075Y001057D01*
X007289Y001271D01*
X007505Y001271D02*
X007932Y000630D01*
X007932Y001271D01*
X008150Y000950D02*
X008257Y001057D01*
X008470Y001057D01*
X008577Y000950D01*
X008577Y000844D01*
X008150Y000844D01*
X008150Y000950D02*
X008150Y000737D01*
X008257Y000630D01*
X008470Y000630D01*
X008794Y000737D02*
X008901Y000630D01*
X009221Y000630D01*
X009221Y001057D01*
X009439Y001057D02*
X009652Y001057D01*
X009546Y001164D02*
X009546Y000737D01*
X009652Y000630D01*
X009869Y000630D02*
X009869Y001057D01*
X009869Y000844D02*
X010082Y001057D01*
X010189Y001057D01*
X010512Y001057D02*
X010726Y001057D01*
X010833Y000950D01*
X010833Y000630D01*
X010512Y000630D01*
X010406Y000737D01*
X010512Y000844D01*
X010833Y000844D01*
X011050Y000630D02*
X011264Y000630D01*
X011157Y000630D02*
X011157Y001271D01*
X011050Y001271D01*
X011480Y001271D02*
X011693Y001057D01*
X011693Y000844D01*
X011480Y000630D01*
X008794Y000737D02*
X008794Y001057D01*
X007505Y001271D02*
X007505Y000630D01*
X007289Y000630D02*
X007075Y000844D01*
X008750Y002100D02*
X015450Y002100D01*
X015476Y002102D01*
X015502Y002107D01*
X015527Y002115D01*
X015550Y002127D01*
X015572Y002141D01*
X015591Y002159D01*
X015609Y002178D01*
X015623Y002200D01*
X015635Y002223D01*
X015643Y002248D01*
X015648Y002274D01*
X015650Y002300D01*
X015650Y003900D01*
X015648Y003926D01*
X015643Y003952D01*
X015635Y003977D01*
X015623Y004000D01*
X015609Y004022D01*
X015591Y004041D01*
X015572Y004059D01*
X015550Y004073D01*
X015527Y004085D01*
X015502Y004093D01*
X015476Y004098D01*
X015450Y004100D01*
X008750Y004100D01*
X008724Y004098D01*
X008698Y004093D01*
X008673Y004085D01*
X008650Y004073D01*
X008628Y004059D01*
X008609Y004041D01*
X008591Y004022D01*
X008577Y004000D01*
X008565Y003977D01*
X008557Y003952D01*
X008552Y003926D01*
X008550Y003900D01*
X008550Y002300D01*
X008552Y002274D01*
X008557Y002248D01*
X008565Y002223D01*
X008577Y002200D01*
X008591Y002178D01*
X008609Y002159D01*
X008628Y002141D01*
X008650Y002127D01*
X008673Y002115D01*
X008698Y002107D01*
X008724Y002102D01*
X008750Y002100D01*
X009700Y003100D02*
X010100Y003100D01*
X010450Y003100D02*
X014500Y003100D01*
X010013Y004230D02*
X009686Y004230D01*
X010013Y004557D01*
X010013Y004639D01*
X009932Y004720D01*
X009768Y004720D01*
X009686Y004639D01*
X009507Y004639D02*
X009425Y004720D01*
X009262Y004720D01*
X009180Y004639D01*
X009180Y004312D01*
X009262Y004230D01*
X009425Y004230D01*
X009507Y004312D01*
X006100Y004650D02*
X006100Y003950D01*
X006100Y002250D01*
X006100Y003950D02*
X002100Y003950D01*
X001900Y003900D01*
X001900Y004350D01*
X002100Y004300D01*
X002100Y004650D02*
X006100Y004650D01*
X004890Y004300D02*
X004892Y004328D01*
X004898Y004355D01*
X004907Y004381D01*
X004920Y004406D01*
X004937Y004429D01*
X004956Y004449D01*
X004978Y004466D01*
X005002Y004480D01*
X005028Y004490D01*
X005055Y004497D01*
X005083Y004500D01*
X005111Y004499D01*
X005138Y004494D01*
X005165Y004485D01*
X005190Y004473D01*
X005213Y004458D01*
X005234Y004439D01*
X005252Y004418D01*
X005267Y004394D01*
X005278Y004368D01*
X005286Y004342D01*
X005290Y004314D01*
X005290Y004286D01*
X005286Y004258D01*
X005278Y004232D01*
X005267Y004206D01*
X005252Y004182D01*
X005234Y004161D01*
X005213Y004142D01*
X005190Y004127D01*
X005165Y004115D01*
X005138Y004106D01*
X005111Y004101D01*
X005083Y004100D01*
X005055Y004103D01*
X005028Y004110D01*
X005002Y004120D01*
X004978Y004134D01*
X004956Y004151D01*
X004937Y004171D01*
X004920Y004194D01*
X004907Y004219D01*
X004898Y004245D01*
X004892Y004272D01*
X004890Y004300D01*
X002910Y004300D02*
X002912Y004328D01*
X002918Y004355D01*
X002927Y004381D01*
X002940Y004406D01*
X002957Y004429D01*
X002976Y004449D01*
X002998Y004466D01*
X003022Y004480D01*
X003048Y004490D01*
X003075Y004497D01*
X003103Y004500D01*
X003131Y004499D01*
X003158Y004494D01*
X003185Y004485D01*
X003210Y004473D01*
X003233Y004458D01*
X003254Y004439D01*
X003272Y004418D01*
X003287Y004394D01*
X003298Y004368D01*
X003306Y004342D01*
X003310Y004314D01*
X003310Y004286D01*
X003306Y004258D01*
X003298Y004232D01*
X003287Y004206D01*
X003272Y004182D01*
X003254Y004161D01*
X003233Y004142D01*
X003210Y004127D01*
X003185Y004115D01*
X003158Y004106D01*
X003131Y004101D01*
X003103Y004100D01*
X003075Y004103D01*
X003048Y004110D01*
X003022Y004120D01*
X002998Y004134D01*
X002976Y004151D01*
X002957Y004171D01*
X002940Y004194D01*
X002927Y004219D01*
X002918Y004245D01*
X002912Y004272D01*
X002910Y004300D01*
X016783Y007472D02*
X018417Y007472D01*
X018417Y011738D01*
X016783Y011738D01*
X016783Y007472D01*
X019283Y008738D02*
X020917Y008738D01*
X020917Y004472D01*
X019283Y004472D01*
X019283Y008738D01*
X027283Y007472D02*
X028917Y007472D01*
X028917Y011738D01*
X027283Y011738D01*
X027283Y007472D01*
X029783Y008738D02*
X031417Y008738D01*
X031417Y004472D01*
X029783Y004472D01*
X029783Y008738D01*
X025228Y012283D02*
X025228Y013917D01*
X020962Y013917D01*
X020962Y012283D01*
X025228Y012283D01*
X030400Y014916D02*
X030507Y014916D01*
X030614Y015023D01*
X030614Y015557D01*
X030294Y015557D01*
X030187Y015450D01*
X030187Y015237D01*
X030294Y015130D01*
X030614Y015130D01*
X030831Y015130D02*
X030831Y015771D01*
X030938Y015557D02*
X030831Y015450D01*
X030938Y015557D02*
X031152Y015557D01*
X031258Y015450D01*
X031258Y015130D01*
X032121Y015130D02*
X032121Y015771D01*
X032441Y015771D01*
X032548Y015664D01*
X032548Y015450D01*
X032441Y015344D01*
X032121Y015344D01*
X032765Y015237D02*
X032872Y015344D01*
X033192Y015344D01*
X033192Y015450D02*
X033192Y015130D01*
X032872Y015130D01*
X032765Y015237D01*
X032872Y015557D02*
X033085Y015557D01*
X033192Y015450D01*
X033410Y015450D02*
X033516Y015344D01*
X033730Y015344D01*
X033837Y015237D01*
X033730Y015130D01*
X033410Y015130D01*
X033410Y015450D02*
X033516Y015557D01*
X033837Y015557D01*
X034054Y015450D02*
X034161Y015344D01*
X034374Y015344D01*
X034481Y015237D01*
X034374Y015130D01*
X034054Y015130D01*
X034054Y015450D02*
X034161Y015557D01*
X034481Y015557D01*
X035343Y015450D02*
X035557Y015450D01*
X035988Y015557D02*
X036095Y015557D01*
X036095Y015130D01*
X036201Y015130D02*
X035988Y015130D01*
X036418Y015130D02*
X036631Y015130D01*
X036524Y015130D02*
X036524Y015771D01*
X036418Y015771D01*
X036095Y015771D02*
X036095Y015877D01*
X035770Y015771D02*
X035343Y015771D01*
X035343Y015130D01*
X036847Y015557D02*
X037061Y015557D01*
X036954Y015664D02*
X036954Y015237D01*
X037061Y015130D01*
X037277Y015237D02*
X037277Y015450D01*
X037384Y015557D01*
X037597Y015557D01*
X037704Y015450D01*
X037704Y015344D01*
X037277Y015344D01*
X037277Y015237D02*
X037384Y015130D01*
X037597Y015130D01*
X037921Y015130D02*
X037921Y015557D01*
X037921Y015344D02*
X038135Y015557D01*
X038242Y015557D01*
X034100Y013500D02*
X034000Y013600D01*
X033200Y013600D01*
X033100Y013500D01*
X033000Y013600D01*
X032200Y013600D01*
X032100Y013500D01*
X032100Y012700D01*
X032200Y012600D01*
X033000Y012600D01*
X033100Y012700D01*
X033200Y012600D01*
X034000Y012600D01*
X034100Y012700D01*
X034100Y013500D01*
X029971Y015130D02*
X029757Y015130D01*
X029864Y015130D02*
X029864Y015557D01*
X029757Y015557D01*
X029540Y015450D02*
X029113Y015450D01*
X029113Y015130D02*
X029113Y015771D01*
X029540Y015771D02*
X029540Y015130D01*
X029864Y015771D02*
X029864Y015877D01*
X028145Y015771D02*
X028145Y015130D01*
X028038Y015130D02*
X028252Y015130D01*
X027821Y015130D02*
X027501Y015130D01*
X027394Y015237D01*
X027501Y015344D01*
X027821Y015344D01*
X027821Y015450D02*
X027821Y015130D01*
X027178Y015130D02*
X026964Y015130D01*
X027071Y015130D02*
X027071Y015557D01*
X026964Y015557D01*
X026748Y015557D02*
X026534Y015557D01*
X026641Y015664D02*
X026641Y015237D01*
X026748Y015130D01*
X026317Y015130D02*
X026317Y015450D01*
X026210Y015557D01*
X025890Y015557D01*
X025890Y015130D01*
X025672Y015344D02*
X025245Y015344D01*
X025245Y015450D02*
X025245Y015237D01*
X025352Y015130D01*
X025566Y015130D01*
X025672Y015344D02*
X025672Y015450D01*
X025566Y015557D01*
X025352Y015557D01*
X025245Y015450D01*
X025028Y015557D02*
X024922Y015557D01*
X024708Y015344D01*
X024708Y015557D02*
X024708Y015130D01*
X024491Y015344D02*
X024064Y015344D01*
X024064Y015450D02*
X024064Y015237D01*
X024170Y015130D01*
X024384Y015130D01*
X024491Y015344D02*
X024491Y015450D01*
X024384Y015557D01*
X024170Y015557D01*
X024064Y015450D01*
X023847Y015450D02*
X023634Y015450D01*
X023418Y015450D02*
X023204Y015450D01*
X023311Y015664D02*
X023418Y015771D01*
X023311Y015664D02*
X023311Y015130D01*
X022988Y015130D02*
X022775Y015130D01*
X022881Y015130D02*
X022881Y015557D01*
X022775Y015557D01*
X022557Y015664D02*
X022450Y015771D01*
X022130Y015771D01*
X022130Y015130D01*
X022450Y015130D01*
X022557Y015237D01*
X022557Y015664D01*
X022881Y015771D02*
X022881Y015877D01*
X023741Y015664D02*
X023847Y015771D01*
X023741Y015664D02*
X023741Y015130D01*
X027071Y015771D02*
X027071Y015877D01*
X027501Y015557D02*
X027714Y015557D01*
X027821Y015450D01*
X028038Y015771D02*
X028145Y015771D01*
X027728Y003917D02*
X023462Y003917D01*
X023462Y002283D01*
X027728Y002283D01*
X027728Y003917D01*
X032600Y003500D02*
X032600Y002700D01*
X032700Y002600D01*
X033500Y002600D01*
X033600Y002700D01*
X033700Y002600D01*
X034500Y002600D01*
X034600Y002700D01*
X034600Y003500D01*
X034500Y003600D01*
X033700Y003600D01*
X033600Y003500D01*
X033500Y003600D01*
X032700Y003600D01*
X032600Y003500D01*
D12*
X010450Y003600D02*
X010450Y003100D01*
X010450Y002600D01*
X010100Y002600D02*
X010100Y003100D01*
X010100Y003600D01*
X010100Y012600D02*
X010100Y013100D01*
X010100Y013600D01*
X010450Y013600D02*
X010450Y013100D01*
X010450Y012600D01*
D13*
X003200Y014885D02*
X002780Y014885D01*
X003200Y015305D01*
X003200Y015410D01*
X003095Y015516D01*
X002885Y015516D01*
X002780Y015410D01*
X002555Y015516D02*
X002135Y014885D01*
X002555Y014885D02*
X002135Y015516D01*
X016565Y008450D02*
X016565Y008030D01*
X016565Y008240D02*
X015934Y008240D01*
X016145Y008030D01*
X016040Y007805D02*
X016250Y007805D01*
X016355Y007700D01*
X016355Y007385D01*
X016565Y007385D02*
X015934Y007385D01*
X015934Y007700D01*
X016040Y007805D01*
X016355Y007595D02*
X016565Y007805D01*
X018540Y005450D02*
X018434Y005345D01*
X018434Y005135D01*
X018540Y005030D01*
X018540Y004805D02*
X018750Y004805D01*
X018855Y004700D01*
X018855Y004385D01*
X019065Y004385D02*
X018434Y004385D01*
X018434Y004700D01*
X018540Y004805D01*
X018855Y004595D02*
X019065Y004805D01*
X019065Y005030D02*
X018645Y005450D01*
X018540Y005450D01*
X019065Y005450D02*
X019065Y005030D01*
X026434Y007385D02*
X026434Y007700D01*
X026540Y007805D01*
X026750Y007805D01*
X026855Y007700D01*
X026855Y007385D01*
X027065Y007385D02*
X026434Y007385D01*
X026855Y007595D02*
X027065Y007805D01*
X026960Y008030D02*
X027065Y008135D01*
X027065Y008345D01*
X026960Y008450D01*
X026855Y008450D01*
X026750Y008345D01*
X026750Y008240D01*
X026750Y008345D02*
X026645Y008450D01*
X026540Y008450D01*
X026434Y008345D01*
X026434Y008135D01*
X026540Y008030D01*
X028934Y005345D02*
X029250Y005030D01*
X029250Y005450D01*
X029565Y005345D02*
X028934Y005345D01*
X029040Y004805D02*
X029250Y004805D01*
X029355Y004700D01*
X029355Y004385D01*
X029565Y004385D02*
X028934Y004385D01*
X028934Y004700D01*
X029040Y004805D01*
X029355Y004595D02*
X029565Y004805D01*
X027661Y002066D02*
X027451Y001960D01*
X027240Y001750D01*
X027556Y001750D01*
X027661Y001645D01*
X027661Y001540D01*
X027556Y001435D01*
X027346Y001435D01*
X027240Y001540D01*
X027240Y001750D01*
X027016Y001750D02*
X026911Y001645D01*
X026596Y001645D01*
X026596Y001435D02*
X026596Y002066D01*
X026911Y002066D01*
X027016Y001960D01*
X027016Y001750D01*
X026806Y001645D02*
X027016Y001435D01*
X025056Y011435D02*
X024846Y011435D01*
X024740Y011540D01*
X024740Y011750D02*
X024951Y011855D01*
X025056Y011855D01*
X025161Y011750D01*
X025161Y011540D01*
X025056Y011435D01*
X024740Y011750D02*
X024740Y012066D01*
X025161Y012066D01*
X024516Y011960D02*
X024516Y011750D01*
X024411Y011645D01*
X024096Y011645D01*
X024096Y011435D02*
X024096Y012066D01*
X024411Y012066D01*
X024516Y011960D01*
X024306Y011645D02*
X024516Y011435D01*
X003200Y005410D02*
X003200Y005305D01*
X003095Y005200D01*
X003200Y005095D01*
X003200Y004990D01*
X003095Y004885D01*
X002885Y004885D01*
X002780Y004990D01*
X002555Y004885D02*
X002135Y005516D01*
X002555Y005516D02*
X002135Y004885D01*
X002990Y005200D02*
X003095Y005200D01*
X003200Y005410D02*
X003095Y005516D01*
X002885Y005516D01*
X002780Y005410D01*
D14*
X017600Y007021D03*
X020100Y004021D03*
X028100Y007021D03*
X030600Y004021D03*
D15*
X030600Y009184D03*
X028100Y012184D03*
X020100Y009184D03*
X017600Y012184D03*
D16*
X025679Y013100D03*
X028179Y003100D03*
D17*
X023016Y003100D03*
X020516Y013100D03*
D18*
X033840Y009033D02*
X033840Y008167D01*
X034431Y008600D02*
X034433Y008651D01*
X034439Y008702D01*
X034449Y008752D01*
X034462Y008802D01*
X034480Y008850D01*
X034500Y008897D01*
X034525Y008942D01*
X034553Y008985D01*
X034584Y009026D01*
X034618Y009064D01*
X034655Y009099D01*
X034694Y009132D01*
X034736Y009162D01*
X034780Y009188D01*
X034826Y009210D01*
X034874Y009230D01*
X034923Y009245D01*
X034973Y009257D01*
X035023Y009265D01*
X035074Y009269D01*
X035126Y009269D01*
X035177Y009265D01*
X035227Y009257D01*
X035277Y009245D01*
X035326Y009230D01*
X035374Y009210D01*
X035420Y009188D01*
X035464Y009162D01*
X035506Y009132D01*
X035545Y009099D01*
X035582Y009064D01*
X035616Y009026D01*
X035647Y008985D01*
X035675Y008942D01*
X035700Y008897D01*
X035720Y008850D01*
X035738Y008802D01*
X035751Y008752D01*
X035761Y008702D01*
X035767Y008651D01*
X035769Y008600D01*
X035767Y008549D01*
X035761Y008498D01*
X035751Y008448D01*
X035738Y008398D01*
X035720Y008350D01*
X035700Y008303D01*
X035675Y008258D01*
X035647Y008215D01*
X035616Y008174D01*
X035582Y008136D01*
X035545Y008101D01*
X035506Y008068D01*
X035464Y008038D01*
X035420Y008012D01*
X035374Y007990D01*
X035326Y007970D01*
X035277Y007955D01*
X035227Y007943D01*
X035177Y007935D01*
X035126Y007931D01*
X035074Y007931D01*
X035023Y007935D01*
X034973Y007943D01*
X034923Y007955D01*
X034874Y007970D01*
X034826Y007990D01*
X034780Y008012D01*
X034736Y008038D01*
X034694Y008068D01*
X034655Y008101D01*
X034618Y008136D01*
X034584Y008174D01*
X034553Y008215D01*
X034525Y008258D01*
X034500Y008303D01*
X034480Y008350D01*
X034462Y008398D01*
X034449Y008448D01*
X034439Y008498D01*
X034433Y008549D01*
X034431Y008600D01*
X036360Y009033D02*
X036360Y008167D01*
X035533Y007340D02*
X034667Y007340D01*
X034667Y009860D02*
X035533Y009860D01*
D19*
X033330Y008387D02*
X033330Y008080D01*
X033330Y007927D02*
X032870Y007620D01*
X032870Y007927D02*
X033330Y007620D01*
X033023Y008080D02*
X032870Y008234D01*
X033330Y008234D01*
D20*
X033204Y011975D02*
X033204Y012425D01*
X033429Y012425D01*
X033504Y012350D01*
X033504Y012200D01*
X033429Y012125D01*
X033204Y012125D01*
X033044Y012425D02*
X032744Y012425D01*
X032894Y012425D02*
X032894Y011975D01*
X033665Y011975D02*
X033965Y011975D01*
X033815Y011975D02*
X033815Y012425D01*
X033665Y012275D01*
X033704Y002425D02*
X033929Y002425D01*
X034004Y002350D01*
X034004Y002200D01*
X033929Y002125D01*
X033704Y002125D01*
X033704Y001975D02*
X033704Y002425D01*
X033544Y002425D02*
X033244Y002425D01*
X033394Y002425D02*
X033394Y001975D01*
X034165Y001975D02*
X034465Y002275D01*
X034465Y002350D01*
X034390Y002425D01*
X034240Y002425D01*
X034165Y002350D01*
X034165Y001975D02*
X034465Y001975D01*
X004602Y004125D02*
X004375Y004125D01*
X004602Y004352D01*
X004602Y004409D01*
X004545Y004465D01*
X004432Y004465D01*
X004375Y004409D01*
X002602Y004125D02*
X002375Y004125D01*
X002488Y004125D02*
X002488Y004465D01*
X002375Y004352D01*
X002375Y014125D02*
X002602Y014125D01*
X002488Y014125D02*
X002488Y014465D01*
X002375Y014352D01*
X004375Y014409D02*
X004432Y014465D01*
X004545Y014465D01*
X004602Y014409D01*
X004602Y014352D01*
X004375Y014125D01*
X004602Y014125D01*
D21*
X004100Y013100D03*
X004100Y003100D03*
M02*
