G75*
G70*
%OFA0B0*%
%FSLAX24Y24*%
%IPPOS*%
%LPD*%
%AMOC8*
5,1,8,0,0,1.08239X$1,22.5*
%
%ADD10C,0.0060*%
%ADD11OC8,0.0850*%
%ADD12C,0.0787*%
%ADD13C,0.0750*%
%ADD14C,0.1050*%
%ADD15C,0.0780*%
%ADD16C,0.0560*%
%ADD17C,0.0500*%
D10*
X005693Y006916D02*
X005586Y007023D01*
X005586Y007557D01*
X005906Y007557D01*
X006013Y007450D01*
X006013Y007237D01*
X005906Y007130D01*
X005586Y007130D01*
X005369Y007130D02*
X005369Y007771D01*
X005262Y007557D02*
X005048Y007557D01*
X004942Y007450D01*
X004942Y007130D01*
X005369Y007450D02*
X005262Y007557D01*
X006229Y007130D02*
X006443Y007130D01*
X006336Y007130D02*
X006336Y007557D01*
X006443Y007557D01*
X006336Y007771D02*
X006336Y007877D01*
X006660Y007771D02*
X006660Y007130D01*
X006660Y007450D02*
X007087Y007450D01*
X007087Y007130D02*
X007087Y007771D01*
X008055Y007771D02*
X008055Y007130D01*
X008162Y007130D02*
X007948Y007130D01*
X008379Y007130D02*
X008379Y007450D01*
X008486Y007557D01*
X008699Y007557D01*
X008699Y007344D02*
X008379Y007344D01*
X008379Y007130D02*
X008699Y007130D01*
X008806Y007237D01*
X008699Y007344D01*
X009022Y007130D02*
X009236Y007130D01*
X009129Y007130D02*
X009129Y007557D01*
X009236Y007557D01*
X009452Y007557D02*
X009666Y007557D01*
X009559Y007664D02*
X009559Y007237D01*
X009452Y007130D01*
X009883Y007130D02*
X009883Y007450D01*
X009990Y007557D01*
X010310Y007557D01*
X010310Y007130D01*
X010528Y007344D02*
X010955Y007344D01*
X010955Y007450D02*
X010848Y007557D01*
X010634Y007557D01*
X010528Y007450D01*
X010528Y007344D01*
X010634Y007130D02*
X010848Y007130D01*
X010955Y007237D01*
X010955Y007450D01*
X011172Y007557D02*
X011278Y007557D01*
X011492Y007344D01*
X011492Y007557D02*
X011492Y007130D01*
X011709Y007344D02*
X012136Y007344D01*
X012136Y007450D02*
X012030Y007557D01*
X011816Y007557D01*
X011709Y007450D01*
X011709Y007344D01*
X011816Y007130D02*
X012030Y007130D01*
X012136Y007237D01*
X012136Y007450D01*
X012353Y007450D02*
X012566Y007450D01*
X012782Y007450D02*
X012996Y007450D01*
X012889Y007664D02*
X012889Y007130D01*
X013212Y007130D02*
X013425Y007130D01*
X013319Y007130D02*
X013319Y007557D01*
X013425Y007557D01*
X013319Y007771D02*
X013319Y007877D01*
X013643Y007664D02*
X013750Y007771D01*
X014070Y007771D01*
X014070Y007130D01*
X013750Y007130D01*
X013643Y007237D01*
X013643Y007664D01*
X012889Y007664D02*
X012782Y007771D01*
X012459Y007664D02*
X012353Y007771D01*
X012459Y007664D02*
X012459Y007130D01*
X010570Y008630D02*
X010356Y008630D01*
X010463Y008630D02*
X010463Y009271D01*
X010570Y009271D02*
X010356Y009271D01*
X010140Y009271D02*
X009927Y009271D01*
X010034Y009271D02*
X010034Y008630D01*
X010140Y008630D02*
X009927Y008630D01*
X009711Y008630D02*
X009497Y008630D01*
X009604Y008630D02*
X009604Y009271D01*
X009711Y009271D02*
X009497Y009271D01*
X009281Y009271D02*
X008854Y009271D01*
X009067Y009271D02*
X009067Y008630D01*
X008636Y008950D02*
X008209Y008950D01*
X007992Y008630D02*
X007992Y009271D01*
X007672Y009271D01*
X007565Y009164D01*
X007565Y008737D01*
X007672Y008630D01*
X007992Y008630D01*
X007347Y008737D02*
X007347Y008950D01*
X007240Y009057D01*
X007027Y009057D01*
X006920Y008950D01*
X006920Y008844D01*
X007347Y008844D01*
X007347Y008737D02*
X007240Y008630D01*
X007027Y008630D01*
X006703Y008630D02*
X006489Y008630D01*
X006596Y008630D02*
X006596Y009271D01*
X006703Y009271D01*
X006273Y009271D02*
X006273Y008630D01*
X005846Y008630D02*
X005846Y008950D01*
X005953Y009057D01*
X006166Y009057D01*
X006273Y008950D01*
X005628Y009057D02*
X005522Y009057D01*
X005522Y008630D01*
X005628Y008630D02*
X005415Y008630D01*
X005522Y009271D02*
X005522Y009377D01*
X009129Y007877D02*
X009129Y007771D01*
X008162Y007771D02*
X008055Y007771D01*
X005800Y006916D02*
X005693Y006916D01*
X004079Y007130D02*
X004079Y007771D01*
X003759Y007771D01*
X003652Y007664D01*
X003652Y007450D01*
X003759Y007344D01*
X004079Y007344D01*
X003435Y007237D02*
X003328Y007344D01*
X003008Y007344D01*
X003008Y007450D02*
X003008Y007130D01*
X003328Y007130D01*
X003435Y007237D01*
X003115Y007557D02*
X003008Y007450D01*
X003115Y007557D02*
X003328Y007557D01*
X002790Y007450D02*
X002684Y007557D01*
X002363Y007557D01*
X002470Y007344D02*
X002684Y007344D01*
X002790Y007450D01*
X002790Y007130D02*
X002470Y007130D01*
X002363Y007237D01*
X002470Y007344D01*
X002146Y007450D02*
X002039Y007557D01*
X001719Y007557D01*
X001826Y007344D02*
X002039Y007344D01*
X002146Y007450D01*
X002146Y007130D02*
X001826Y007130D01*
X001719Y007237D01*
X001826Y007344D01*
X000857Y007450D02*
X000643Y007450D01*
X000857Y007130D02*
X000857Y007771D01*
X000430Y007771D01*
X000212Y007557D02*
X000105Y007557D01*
X000105Y007130D01*
X-000001Y007130D02*
X000212Y007130D01*
X-000218Y007130D02*
X-000431Y007130D01*
X-000324Y007130D02*
X-000324Y007771D01*
X-000218Y007771D01*
X000105Y007771D02*
X000105Y007877D01*
X-000754Y007664D02*
X-000754Y007237D01*
X-000861Y007130D01*
X-001077Y007237D02*
X-001077Y007450D01*
X-001184Y007557D01*
X-001397Y007557D01*
X-001504Y007450D01*
X-001504Y007344D01*
X-001077Y007344D01*
X-001077Y007237D02*
X-001184Y007130D01*
X-001397Y007130D01*
X-001721Y007130D02*
X-001721Y007557D01*
X-001721Y007344D02*
X-001935Y007557D01*
X-002042Y007557D01*
X-000861Y007557D02*
X-000647Y007557D01*
D11*
X009150Y003100D03*
X015050Y003100D03*
X015050Y013100D03*
X009150Y013100D03*
D12*
X017600Y013104D03*
X019596Y013100D03*
X026604Y013100D03*
X028100Y013104D03*
X030600Y010104D03*
X028100Y006096D03*
X029104Y003100D03*
X030600Y003096D03*
X022096Y003100D03*
X020100Y003096D03*
X017600Y006096D03*
X020100Y010104D03*
D13*
X035100Y008600D03*
D14*
X034096Y007596D03*
X036104Y007596D03*
X036104Y009604D03*
X034096Y009604D03*
D15*
X005090Y012710D02*
X005090Y013490D01*
X003110Y013490D02*
X003110Y012710D01*
X003110Y003490D02*
X003110Y002710D01*
X005090Y002710D02*
X005090Y003490D01*
D16*
X032600Y012820D02*
X032600Y013380D01*
X033600Y013380D02*
X033600Y012820D01*
X033100Y003380D02*
X033100Y002820D01*
X034100Y002820D02*
X034100Y003380D01*
D17*
X005100Y003100D02*
X005100Y002600D01*
X005090Y003100D02*
X005100Y003100D01*
X005090Y003100D02*
X009100Y003100D01*
X005090Y003100D02*
X003110Y003100D01*
X015050Y003100D02*
X020096Y003100D01*
X020100Y003096D01*
X022096Y003096D01*
X022100Y003100D01*
X022096Y003100D01*
X018600Y006600D02*
X018096Y006096D01*
X017600Y006096D01*
X018600Y006600D02*
X018600Y009100D01*
X019604Y010104D01*
X020100Y010104D01*
X019596Y013100D02*
X019596Y013104D01*
X017600Y013104D01*
X017600Y013100D01*
X015050Y013100D01*
X009150Y013100D02*
X005090Y013100D01*
X003110Y013100D01*
X026604Y013100D02*
X028096Y013100D01*
X028100Y013104D01*
X032596Y013104D01*
X032600Y013100D01*
X033600Y013100D01*
X034100Y013100D01*
X035100Y012100D01*
X035100Y008600D01*
X034100Y007592D02*
X034096Y007596D01*
X034100Y007592D02*
X034100Y003100D01*
X033100Y003100D01*
X033096Y003096D01*
X030600Y003096D01*
X030596Y003100D01*
X029104Y003100D01*
X028596Y006096D02*
X028100Y006096D01*
X028596Y006096D02*
X029100Y006600D01*
X029100Y009100D01*
X030104Y010104D01*
X030600Y010104D01*
M02*
