G75*
G70*
%OFA0B0*%
%FSLAX24Y24*%
%IPPOS*%
%LPD*%
%AMOC8*
5,1,8,0,0,1.08239X$1,22.5*
%
%ADD10C,0.1340*%
%ADD11OC8,0.0930*%
%ADD12C,0.0867*%
%ADD13C,0.0830*%
%ADD14C,0.1130*%
%ADD15C,0.0860*%
%ADD16C,0.0640*%
D10*
X017600Y001600D03*
X036100Y001600D03*
X036100Y014600D03*
X017600Y015100D03*
D11*
X015050Y013100D03*
X009150Y013100D03*
X009150Y003100D03*
X015050Y003100D03*
D12*
X020100Y003096D03*
X022096Y003100D03*
X017600Y006096D03*
X020100Y010104D03*
X019596Y013100D03*
X017600Y013104D03*
X026604Y013100D03*
X028100Y013104D03*
X030600Y010104D03*
X028100Y006096D03*
X029104Y003100D03*
X030600Y003096D03*
D13*
X035100Y008600D03*
D14*
X034096Y007596D03*
X036104Y007596D03*
X036104Y009604D03*
X034096Y009604D03*
D15*
X003110Y003490D02*
X003110Y002710D01*
X005090Y002710D02*
X005090Y003490D01*
X005090Y012710D02*
X005090Y013490D01*
X003110Y013490D02*
X003110Y012710D01*
D16*
X032600Y012820D02*
X032600Y013380D01*
X033600Y013380D02*
X033600Y012820D01*
X033100Y003380D02*
X033100Y002820D01*
X034100Y002820D02*
X034100Y003380D01*
M02*
