G75*
%MOIN*%
%OFA0B0*%
%FSLAX24Y24*%
%IPPOS*%
%LPD*%
%AMOC8*
5,1,8,0,0,1.08239X$1,22.5*
%
%ADD10OC8,0.0850*%
%ADD11C,0.0787*%
%ADD12C,0.0750*%
%ADD13C,0.1050*%
%ADD14C,0.0780*%
%ADD15R,0.0787X0.0630*%
%ADD16C,0.0500*%
D10*
X009150Y013100D03*
X015050Y013100D03*
D11*
X017600Y013104D03*
X020600Y011104D03*
X017600Y006096D03*
X020600Y004096D03*
D12*
X028600Y008600D03*
D13*
X027596Y007596D03*
X029604Y007596D03*
X029604Y009604D03*
X027596Y009604D03*
D14*
X005090Y012710D02*
X005090Y013490D01*
X003110Y013490D02*
X003110Y012710D01*
X003110Y003490D02*
X003110Y002710D01*
X005090Y002710D02*
X005090Y003490D01*
D15*
X023600Y007049D03*
X023600Y008151D03*
X023600Y009549D03*
X023600Y010651D03*
D16*
X000750Y015820D02*
X000750Y000750D01*
X016640Y000750D01*
X016576Y000814D01*
X016407Y001106D01*
X016320Y001431D01*
X016320Y001769D01*
X016407Y002094D01*
X016515Y002280D01*
X005951Y002280D01*
X005904Y002166D01*
X005634Y001896D01*
X005281Y001750D01*
X004899Y001750D01*
X004546Y001896D01*
X004276Y002166D01*
X004229Y002280D01*
X003971Y002280D01*
X003924Y002166D01*
X003654Y001896D01*
X003301Y001750D01*
X002919Y001750D01*
X002566Y001896D01*
X002296Y002166D01*
X002150Y002519D01*
X002150Y003681D01*
X002296Y004034D01*
X002566Y004304D01*
X002919Y004450D01*
X003301Y004450D01*
X003654Y004304D01*
X003924Y004034D01*
X003971Y003920D01*
X004229Y003920D01*
X004276Y004034D01*
X004546Y004304D01*
X004899Y004450D01*
X005281Y004450D01*
X005634Y004304D01*
X005904Y004034D01*
X005951Y003920D01*
X019636Y003920D01*
X019636Y004288D01*
X019783Y004642D01*
X020054Y004913D01*
X020408Y005060D01*
X020792Y005060D01*
X021146Y004913D01*
X021417Y004642D01*
X021564Y004288D01*
X021564Y003920D01*
X021939Y003920D01*
X021941Y003921D01*
X022102Y003920D01*
X025760Y003920D01*
X026780Y004940D01*
X026780Y005280D01*
X024437Y005280D01*
X024136Y005405D01*
X023905Y005636D01*
X023376Y006164D01*
X023093Y006164D01*
X022883Y006251D01*
X022723Y006411D01*
X022636Y006620D01*
X022636Y007477D01*
X022687Y007600D01*
X022636Y007723D01*
X022636Y008580D01*
X022723Y008789D01*
X022780Y008846D01*
X022780Y008854D01*
X022723Y008911D01*
X022636Y009120D01*
X022636Y009977D01*
X022687Y010100D01*
X022636Y010223D01*
X022636Y011080D01*
X022723Y011289D01*
X022780Y011346D01*
X022780Y011760D01*
X022256Y012284D01*
X018139Y012284D01*
X017792Y012140D01*
X017408Y012140D01*
X017071Y012280D01*
X015637Y012280D01*
X015462Y012105D01*
X014638Y012105D01*
X014055Y012688D01*
X014055Y013512D01*
X014638Y014095D01*
X015462Y014095D01*
X015637Y013920D01*
X017053Y013920D01*
X017054Y013921D01*
X017071Y013928D01*
X016814Y014076D01*
X016576Y014314D01*
X016407Y014606D01*
X016320Y014931D01*
X016320Y015269D01*
X016407Y015594D01*
X016538Y015820D01*
X000750Y015820D01*
X000750Y015552D02*
X016396Y015552D01*
X016320Y015054D02*
X000750Y015054D01*
X000750Y014555D02*
X016437Y014555D01*
X016848Y014057D02*
X015501Y014057D01*
X014599Y014057D02*
X009601Y014057D01*
X009562Y014095D02*
X008738Y014095D01*
X008563Y013920D01*
X005951Y013920D01*
X005904Y014034D01*
X005634Y014304D01*
X005281Y014450D01*
X004899Y014450D01*
X004546Y014304D01*
X004276Y014034D01*
X004229Y013920D01*
X003971Y013920D01*
X003924Y014034D01*
X003654Y014304D01*
X003301Y014450D01*
X002919Y014450D01*
X002566Y014304D01*
X002296Y014034D01*
X002150Y013681D01*
X002150Y012519D01*
X002296Y012166D01*
X002566Y011896D01*
X002919Y011750D01*
X003301Y011750D01*
X003654Y011896D01*
X003924Y012166D01*
X003971Y012280D01*
X004229Y012280D01*
X004276Y012166D01*
X004546Y011896D01*
X004899Y011750D01*
X005281Y011750D01*
X005634Y011896D01*
X005904Y012166D01*
X005951Y012280D01*
X008563Y012280D01*
X008738Y012105D01*
X009562Y012105D01*
X010145Y012688D01*
X010145Y013512D01*
X009562Y014095D01*
X008699Y014057D02*
X005881Y014057D01*
X005090Y013100D02*
X009150Y013100D01*
X010099Y013558D02*
X014101Y013558D01*
X014055Y013060D02*
X010145Y013060D01*
X010018Y012561D02*
X014182Y012561D01*
X015050Y013100D02*
X017600Y013100D01*
X017600Y013104D01*
X022596Y013104D01*
X023600Y012100D01*
X023600Y010651D01*
X024151Y010651D01*
X025100Y011600D01*
X028100Y011600D01*
X028600Y011100D01*
X028600Y008600D01*
X030055Y008600D02*
X030276Y008728D01*
X030480Y008932D01*
X030624Y009181D01*
X030699Y009460D01*
X030699Y009748D01*
X030624Y010027D01*
X030480Y010276D01*
X030276Y010480D01*
X030027Y010624D01*
X029748Y010699D01*
X029460Y010699D01*
X029420Y010688D01*
X029420Y011263D01*
X029295Y011564D01*
X030942Y011564D01*
X030942Y011066D02*
X029420Y011066D01*
X029295Y011564D02*
X029064Y011795D01*
X028564Y012295D01*
X028263Y012420D01*
X024937Y012420D01*
X024636Y012295D01*
X024420Y012080D01*
X024420Y012263D01*
X024295Y012564D01*
X024064Y012795D01*
X023061Y013799D01*
X022759Y013924D01*
X018139Y013924D01*
X018129Y013928D01*
X018386Y014076D01*
X018624Y014314D01*
X018793Y014606D01*
X018880Y014931D01*
X018880Y015269D01*
X018793Y015594D01*
X018662Y015820D01*
X028538Y015820D01*
X028407Y015594D01*
X028320Y015269D01*
X028320Y014931D01*
X028407Y014606D01*
X028576Y014314D01*
X028814Y014076D01*
X029106Y013907D01*
X029431Y013820D01*
X029769Y013820D01*
X030094Y013907D01*
X030386Y014076D01*
X030624Y014314D01*
X030793Y014606D01*
X030880Y014931D01*
X030880Y015269D01*
X030793Y015594D01*
X030662Y015820D01*
X030942Y015820D01*
X030942Y000750D01*
X030560Y000750D01*
X030624Y000814D01*
X030793Y001106D01*
X030880Y001431D01*
X030880Y001769D01*
X030793Y002094D01*
X030624Y002386D01*
X030386Y002624D01*
X030094Y002793D01*
X029769Y002880D01*
X029431Y002880D01*
X029106Y002793D01*
X028814Y002624D01*
X028576Y002386D01*
X028407Y002094D01*
X028320Y001769D01*
X028320Y001431D01*
X028407Y001106D01*
X028576Y000814D01*
X028640Y000750D01*
X018560Y000750D01*
X018624Y000814D01*
X018793Y001106D01*
X018880Y001431D01*
X018880Y001769D01*
X018793Y002094D01*
X018685Y002280D01*
X022098Y002280D01*
X023005Y002275D01*
X023017Y002280D01*
X025923Y002280D01*
X025933Y002276D01*
X026259Y002276D01*
X026561Y002401D01*
X026791Y002632D01*
X028064Y003905D01*
X028295Y004136D01*
X028420Y004437D01*
X028420Y006871D01*
X028472Y006924D01*
X028600Y007145D01*
X028728Y006924D01*
X028932Y006720D01*
X029181Y006576D01*
X029460Y006501D01*
X029748Y006501D01*
X030027Y006576D01*
X030276Y006720D01*
X030480Y006924D01*
X030624Y007173D01*
X030699Y007452D01*
X030699Y007740D01*
X030624Y008019D01*
X030480Y008268D01*
X030276Y008472D01*
X030055Y008600D01*
X030102Y008573D02*
X030942Y008573D01*
X030942Y008075D02*
X030592Y008075D01*
X030699Y007576D02*
X030942Y007576D01*
X030942Y007078D02*
X030569Y007078D01*
X030942Y006579D02*
X030032Y006579D01*
X029176Y006579D02*
X028420Y006579D01*
X028420Y006081D02*
X030942Y006081D01*
X030942Y005582D02*
X028420Y005582D01*
X028420Y005084D02*
X030942Y005084D01*
X030942Y004585D02*
X028420Y004585D01*
X027600Y004600D02*
X027600Y006100D01*
X024600Y006100D01*
X023651Y007049D01*
X023600Y007049D01*
X022636Y007078D02*
X019920Y007078D01*
X019920Y007576D02*
X022677Y007576D01*
X022636Y008075D02*
X019920Y008075D01*
X019920Y008573D02*
X022636Y008573D01*
X022657Y009072D02*
X019920Y009072D01*
X019920Y009570D02*
X022636Y009570D01*
X022674Y010069D02*
X019920Y010069D01*
X019920Y010260D02*
X019940Y010280D01*
X020071Y010280D01*
X020408Y010140D01*
X020792Y010140D01*
X021146Y010287D01*
X021417Y010558D01*
X021564Y010912D01*
X021564Y011296D01*
X021417Y011650D01*
X021146Y011921D01*
X020792Y012068D01*
X020408Y012068D01*
X020054Y011921D01*
X020053Y011920D01*
X019437Y011920D01*
X019136Y011795D01*
X018905Y011564D01*
X018405Y011064D01*
X018280Y010763D01*
X018280Y006940D01*
X018256Y006916D01*
X018139Y006916D01*
X017792Y007060D01*
X017408Y007060D01*
X017054Y006913D01*
X016783Y006642D01*
X016636Y006288D01*
X016636Y005904D01*
X016783Y005550D01*
X017054Y005279D01*
X017408Y005132D01*
X017792Y005132D01*
X018139Y005276D01*
X018759Y005276D01*
X019061Y005401D01*
X019564Y005905D01*
X019564Y005905D01*
X019795Y006136D01*
X019920Y006437D01*
X019920Y010260D01*
X019100Y010600D02*
X019600Y011100D01*
X020596Y011100D01*
X020600Y011104D01*
X021453Y011564D02*
X022780Y011564D01*
X022636Y011066D02*
X021564Y011066D01*
X021421Y010567D02*
X022636Y010567D01*
X023600Y009549D02*
X023600Y008151D01*
X024564Y008075D02*
X026608Y008075D01*
X026576Y008019D02*
X026501Y007740D01*
X026501Y007452D01*
X026576Y007173D01*
X026720Y006924D01*
X026724Y006920D01*
X024940Y006920D01*
X024564Y007296D01*
X024564Y007477D01*
X024513Y007600D01*
X024564Y007723D01*
X024564Y008580D01*
X024477Y008789D01*
X024420Y008846D01*
X024420Y008854D01*
X024477Y008911D01*
X024564Y009120D01*
X024564Y009934D01*
X024616Y009956D01*
X025440Y010780D01*
X027760Y010780D01*
X027780Y010760D01*
X027780Y010688D01*
X027740Y010699D01*
X027452Y010699D01*
X027173Y010624D01*
X026924Y010480D01*
X026720Y010276D01*
X026576Y010027D01*
X026501Y009748D01*
X026501Y009460D01*
X026576Y009181D01*
X026720Y008932D01*
X026924Y008728D01*
X027145Y008600D01*
X026924Y008472D01*
X026720Y008268D01*
X026576Y008019D01*
X026501Y007576D02*
X024523Y007576D01*
X024782Y007078D02*
X026631Y007078D01*
X027596Y007596D02*
X027600Y007592D01*
X027600Y006100D01*
X026780Y005084D02*
X000750Y005084D01*
X000750Y005582D02*
X016770Y005582D01*
X016636Y006081D02*
X000750Y006081D01*
X000750Y006579D02*
X016757Y006579D01*
X017600Y006096D02*
X018596Y006096D01*
X019100Y006600D01*
X019100Y010600D01*
X018280Y010567D02*
X000750Y010567D01*
X000750Y010069D02*
X018280Y010069D01*
X018280Y009570D02*
X000750Y009570D01*
X000750Y009072D02*
X018280Y009072D01*
X018280Y008573D02*
X000750Y008573D01*
X000750Y008075D02*
X018280Y008075D01*
X018280Y007576D02*
X000750Y007576D01*
X000750Y007078D02*
X018280Y007078D01*
X019920Y006579D02*
X022653Y006579D01*
X023460Y006081D02*
X019740Y006081D01*
X019242Y005582D02*
X023958Y005582D01*
X026425Y004585D02*
X021441Y004585D01*
X021564Y004087D02*
X025927Y004087D01*
X026092Y003100D02*
X026096Y003096D01*
X027600Y004600D01*
X028246Y004087D02*
X030942Y004087D01*
X030942Y003588D02*
X027748Y003588D01*
X027249Y003090D02*
X030942Y003090D01*
X030942Y002591D02*
X030419Y002591D01*
X030793Y002093D02*
X030942Y002093D01*
X030942Y001594D02*
X030880Y001594D01*
X030942Y001096D02*
X030787Y001096D01*
X028413Y001096D02*
X018787Y001096D01*
X018880Y001594D02*
X028320Y001594D01*
X028407Y002093D02*
X018793Y002093D01*
X020600Y003100D02*
X020600Y004096D01*
X019759Y004585D02*
X000750Y004585D01*
X000750Y004087D02*
X002349Y004087D01*
X002150Y003588D02*
X000750Y003588D01*
X000750Y003090D02*
X002150Y003090D01*
X002150Y002591D02*
X000750Y002591D01*
X000750Y002093D02*
X002370Y002093D01*
X003850Y002093D02*
X004350Y002093D01*
X005100Y002600D02*
X005100Y003100D01*
X005090Y003100D01*
X020600Y003100D01*
X022100Y003100D01*
X026092Y003100D01*
X026751Y002591D02*
X028781Y002591D01*
X026791Y002632D02*
X026791Y002632D01*
X022846Y003096D02*
X022100Y003100D01*
X019636Y004087D02*
X005851Y004087D01*
X004329Y004087D02*
X003871Y004087D01*
X003110Y003100D02*
X005090Y003100D01*
X005830Y002093D02*
X016407Y002093D01*
X016320Y001594D02*
X000750Y001594D01*
X000750Y001096D02*
X016413Y001096D01*
X028561Y007078D02*
X028639Y007078D01*
X027098Y008573D02*
X024564Y008573D01*
X024543Y009072D02*
X026639Y009072D01*
X026501Y009570D02*
X024564Y009570D01*
X024728Y010069D02*
X026600Y010069D01*
X027074Y010567D02*
X025227Y010567D01*
X022478Y012063D02*
X020804Y012063D01*
X020396Y012063D02*
X005800Y012063D01*
X004380Y012063D02*
X003820Y012063D01*
X002400Y012063D02*
X000750Y012063D01*
X000750Y012561D02*
X002150Y012561D01*
X002150Y013060D02*
X000750Y013060D01*
X000750Y013558D02*
X002150Y013558D01*
X002319Y014057D02*
X000750Y014057D01*
X003110Y013100D02*
X005090Y013100D01*
X004299Y014057D02*
X003901Y014057D01*
X000750Y011564D02*
X018904Y011564D01*
X018406Y011066D02*
X000750Y011066D01*
X018352Y014057D02*
X028848Y014057D01*
X028437Y014555D02*
X018763Y014555D01*
X018880Y015054D02*
X028320Y015054D01*
X028396Y015552D02*
X018804Y015552D01*
X023302Y013558D02*
X030942Y013558D01*
X030942Y013060D02*
X023800Y013060D01*
X024297Y012561D02*
X030942Y012561D01*
X030942Y012063D02*
X028797Y012063D01*
X030126Y010567D02*
X030942Y010567D01*
X030942Y010069D02*
X030600Y010069D01*
X030699Y009570D02*
X030942Y009570D01*
X030942Y009072D02*
X030561Y009072D01*
X030352Y014057D02*
X030942Y014057D01*
X030942Y014555D02*
X030763Y014555D01*
X030880Y015054D02*
X030942Y015054D01*
X030942Y015552D02*
X030804Y015552D01*
M02*
